# xmcd CD database file
#
# Track frame offsets:
#	150
#	91326
#	181420
#
# Disc length: 3952 seconds
#
# Revision: 0
# Processed by: cddbd v1.5.2PL0 Copyright (c) Steve Scherf et al.
# Submitted via: CDex 1.70beta2
#
DISCID=1c0f6e03
DTITLE=Amrita - Music for Relaxing
DYEAR=1900
DGENRE=New Age
TTITLE0=Lively Melodic Track
TTITLE1=Slow thoughtful Track
TTITLE2=Interesting Melody
EXTD=
EXTT0=
EXTT1=
EXTT2=
PLAYORDER=
